<svg width="807" height="676" viewBox="0 0 807 676" fill="none" xmlns="http://www.w3.org/2000/svg">
<path d="M749.084 1281.15C899.739 1277 1052.24 1397.33 1188.92 1333.82C1326.31 1269.98 1403.06 1110.7 1434.76 962.56C1463.82 826.762 1383.67 698.117 1354.01 562.449C1326.92 438.569 1343.63 301.571 1267.98 199.794C1190.2 95.133 1067.37 24.8111 938.702 3.64505C816.367 -16.4779 702.774 51.654 584.026 87.286C466.09 122.674 432.814 125.764 348.5 215.5C263.398 306.075 281.03 481.773 244.287 600.5C199.125 746.432 -25.6164 839.947 3.55158 989.896C34.0136 1146.5 144.776 1300.47 293.375 1358.52C439.856 1415.75 591.882 1285.49 749.084 1281.15Z" fill="#22262A"/>
</svg>
