<svg width="728" height="757" viewBox="0 0 728 757" fill="none" xmlns="http://www.w3.org/2000/svg">
<path d="M0 746.216C146.271 736.14 182.19 611.815 296.5 520C406.432 431.701 552.82 389.367 606.57 259.011C658.185 133.833 750.233 10.626 722.119 -121.825C694.256 -253.093 543.645 -311.898 462.673 -418.909C373.739 -536.443 362.855 -731.358 223.843 -780.34C85.944 -828.93 -52.327 -709.108 -184.696 -647.016C-298.108 -593.817 -393.195 -521.253 -492.174 -444.471C-616.638 -347.92 -808.311 -293.083 -839.89 -138.758C-871.188 14.196 -705.626 132.626 -639.172 273.9C-573.694 413.099 -575.861 594.129 -452.144 685.55C-327.318 777.79 -154.842 756.883 0 746.216Z" fill="#161A1C"/>
</svg>
