<svg width="207" height="32" viewBox="0 0 207 32" fill="none" xmlns="http://www.w3.org/2000/svg">
<g clip-path="url(#clip0_145_558)">
<path d="M15.9097 31.7332C15.5272 31.7332 15.1689 31.6625 14.8345 31.5207C14.4998 31.3791 14.1893 31.1666 13.9025 30.8832L1.78848 18.9125C1.26283 18.393 1 17.7196 1 16.8922C1 16.0669 1.26283 15.3944 1.78848 14.875C2.31415 14.3555 2.98317 14.0957 3.79555 14.0957C4.60793 14.0957 5.27695 14.3555 5.80262 14.875L15.9812 24.9332L19.9955 28.9L17.9166 30.8832C17.63 31.1666 17.3193 31.3791 16.9849 31.5207C16.6503 31.6625 16.2919 31.7332 15.9097 31.7332ZM32.1094 31.6625C31.7272 31.6625 31.3688 31.603 31.0342 31.484C30.6998 31.3669 30.3891 31.1666 30.1025 30.8832L17.9166 18.8416C17.391 18.3221 17.1282 17.6487 17.1282 16.8215C17.1282 15.996 17.391 15.3235 17.9166 14.8041C18.4423 14.2846 19.1114 14.025 19.9237 14.025C20.7361 14.025 21.4051 14.2846 21.9309 14.8041L32.1094 24.8625L56.4809 0.779109C57.0067 0.259589 57.6755 0 58.4881 0C59.3004 0 59.9694 0.259589 60.495 0.779109C61.0207 1.29846 61.2836 1.97098 61.2836 2.7965C61.2836 3.62372 61.0207 4.29709 60.495 4.81661L34.1165 30.8832C33.8298 31.1666 33.5192 31.3669 33.1846 31.484C32.8502 31.603 32.4918 31.6625 32.1094 31.6625ZM32.1094 16.8582L28.0236 12.8916L40.2095 0.85C40.735 0.33048 41.4156 0.0707188 42.2508 0.0707188C43.0881 0.0707188 43.7695 0.33048 44.2953 0.85C44.8208 1.36935 45.0837 2.03048 45.0837 2.83322C45.0837 3.63596 44.8208 4.29709 44.2953 4.81661L32.1094 16.8582Z" fill="#EB9929"/>
<path d="M69.0457 31.0239C67.5594 31.0239 66.2244 30.7383 65.0408 30.1671C63.8572 29.5959 62.9351 28.8207 62.2745 27.8415C61.6139 26.8623 61.2836 25.7607 61.2836 24.5367C61.2836 23.0679 61.6689 21.9119 62.4396 21.0687C63.2104 20.1983 64.4628 19.5863 66.1969 19.2327C67.931 18.8519 70.2293 18.6615 73.092 18.6615H75.2802V21.8439H73.1333C71.7295 21.8439 70.5872 21.9255 69.7063 22.0887C68.8531 22.2247 68.2337 22.4695 67.8484 22.8231C67.4906 23.1767 67.3116 23.6663 67.3116 24.2919C67.3116 25.0535 67.5731 25.6791 68.0961 26.1687C68.6466 26.6583 69.4311 26.9031 70.4495 26.9031C71.2478 26.9031 71.9497 26.7263 72.5552 26.3727C73.1883 25.9919 73.6838 25.4887 74.0416 24.8631C74.3994 24.2103 74.5783 23.4759 74.5783 22.6599V17.9679C74.5783 16.7711 74.3031 15.9279 73.7526 15.4383C73.2021 14.9215 72.2662 14.6631 70.945 14.6631C70.2018 14.6631 69.3898 14.7583 68.509 14.9487C67.6557 15.1119 66.7061 15.3975 65.6601 15.8055C65.0546 16.0775 64.5178 16.1455 64.0499 16.0095C63.5819 15.8463 63.2241 15.5743 62.9764 15.1935C62.7287 14.7855 62.6048 14.3503 62.6048 13.8879C62.6048 13.3983 62.7424 12.9359 63.0177 12.5007C63.2929 12.0383 63.7471 11.6983 64.3802 11.4807C65.6739 10.9639 66.885 10.6103 68.0135 10.4199C69.1696 10.2295 70.2293 10.1343 71.1927 10.1343C73.3122 10.1343 75.0463 10.4471 76.395 11.0727C77.7713 11.6711 78.8035 12.6095 79.4916 13.8879C80.1798 15.1391 80.5238 16.7575 80.5238 18.7431V27.8007C80.5238 28.8071 80.2761 29.5823 79.7807 30.1263C79.2852 30.6703 78.5695 30.9423 77.6337 30.9423C76.6978 30.9423 75.9684 30.6703 75.4454 30.1263C74.9499 29.5823 74.7022 28.8071 74.7022 27.8007V26.2911L74.9912 26.5359C74.8261 27.4607 74.4683 28.2631 73.9177 28.9431C73.3948 29.5959 72.7204 30.1127 71.8946 30.4935C71.0689 30.8471 70.1192 31.0239 69.0457 31.0239ZM95.125 31.0239C93.2258 31.0239 91.6293 30.7111 90.3356 30.0855C89.0695 29.4599 88.1198 28.5487 87.4867 27.3519C86.8812 26.1551 86.5784 24.6455 86.5784 22.8231V15.1527H84.8443C84.0736 15.1527 83.468 14.9487 83.0276 14.5407C82.6147 14.1327 82.4083 13.5751 82.4083 12.8679C82.4083 12.1063 82.6147 11.5351 83.0276 11.1543C83.468 10.7463 84.0736 10.5423 84.8443 10.5423H86.5784V7.44147C86.5784 6.40787 86.8537 5.63267 87.4042 5.11587C87.9547 4.57187 88.7254 4.29987 89.7163 4.29987C90.7347 4.29987 91.5054 4.57187 92.0284 5.11587C92.5514 5.63267 92.8129 6.40787 92.8129 7.44147V10.5423H96.7353C97.506 10.5423 98.0978 10.7463 98.5107 11.1543C98.9236 11.5351 99.13 12.1063 99.13 12.8679C99.13 13.5751 98.9236 14.1327 98.5107 14.5407C98.0978 14.9487 97.506 15.1527 96.7353 15.1527H92.8129V22.5783C92.8129 23.7207 93.0744 24.5775 93.5974 25.1487C94.1479 25.7199 95.0149 26.0055 96.1985 26.0055C96.6114 26.0055 96.9968 25.9647 97.3546 25.8831C97.7124 25.8015 98.0427 25.7471 98.3455 25.7199C98.7309 25.6927 99.0474 25.8151 99.2951 26.0871C99.5429 26.3319 99.6667 26.8895 99.6667 27.7599C99.6667 28.4127 99.5566 28.9839 99.3364 29.4735C99.1162 29.9631 98.7309 30.3167 98.1804 30.5343C97.8225 30.6703 97.3271 30.7791 96.694 30.8607C96.0884 30.9695 95.5655 31.0239 95.125 31.0239ZM111.533 31.0239C109.331 31.0239 107.405 30.6023 105.753 29.7591C104.129 28.8887 102.877 27.6647 101.996 26.0871C101.115 24.5095 100.675 22.6463 100.675 20.4975C100.675 18.8927 100.922 17.4511 101.418 16.1727C101.913 14.8943 102.629 13.8063 103.565 12.9087C104.528 12.0111 105.684 11.3311 107.033 10.8687C108.382 10.3791 109.882 10.1343 111.533 10.1343C112.387 10.1343 113.295 10.2431 114.258 10.4607C115.222 10.6511 116.172 10.9911 117.107 11.4807C117.658 11.7255 118.029 12.0791 118.222 12.5415C118.442 12.9767 118.525 13.4391 118.47 13.9287C118.415 14.3911 118.236 14.8127 117.933 15.1935C117.658 15.5471 117.3 15.7919 116.86 15.9279C116.419 16.0367 115.924 15.9551 115.373 15.6831C114.85 15.3839 114.3 15.1663 113.722 15.0303C113.171 14.8943 112.648 14.8263 112.153 14.8263C111.327 14.8263 110.598 14.9623 109.965 15.2343C109.331 15.4791 108.795 15.8463 108.354 16.3359C107.941 16.7983 107.611 17.3831 107.363 18.0903C107.143 18.7975 107.033 19.6135 107.033 20.5383C107.033 22.3335 107.473 23.7479 108.354 24.7815C109.263 25.7879 110.529 26.2911 112.153 26.2911C112.648 26.2911 113.171 26.2367 113.722 26.1279C114.272 25.9919 114.823 25.7743 115.373 25.4751C115.924 25.2031 116.419 25.1351 116.86 25.2711C117.3 25.4071 117.644 25.6655 117.892 26.0463C118.167 26.3999 118.318 26.8215 118.346 27.3111C118.401 27.7735 118.318 28.2359 118.098 28.6983C117.906 29.1335 117.548 29.4735 117.025 29.7183C116.089 30.1807 115.153 30.5071 114.217 30.6975C113.281 30.9151 112.387 31.0239 111.533 31.0239ZM124.52 30.9423C123.502 30.9423 122.717 30.6703 122.167 30.1263C121.644 29.5823 121.382 28.8071 121.382 27.8007V4.58547C121.382 3.55187 121.644 2.77667 122.167 2.25987C122.717 1.71587 123.502 1.44387 124.52 1.44387C125.511 1.44387 126.268 1.71587 126.791 2.25987C127.341 2.77667 127.617 3.55187 127.617 4.58547V14.2959H127.039C127.672 12.9631 128.608 11.9431 129.846 11.2359C131.112 10.5015 132.544 10.1343 134.14 10.1343C135.764 10.1343 137.099 10.4471 138.145 11.0727C139.191 11.6711 139.976 12.5959 140.499 13.8471C141.022 15.0711 141.283 16.6351 141.283 18.5391V27.8007C141.283 28.8071 141.008 29.5823 140.457 30.1263C139.934 30.6703 139.164 30.9423 138.145 30.9423C137.154 30.9423 136.384 30.6703 135.833 30.1263C135.31 29.5823 135.049 28.8071 135.049 27.8007V18.8247C135.049 17.4375 134.787 16.4447 134.264 15.8463C133.769 15.2207 132.998 14.9079 131.952 14.9079C130.631 14.9079 129.571 15.3159 128.773 16.1319C128.002 16.9479 127.617 18.0359 127.617 19.3959V27.8007C127.617 29.8951 126.585 30.9423 124.52 30.9423ZM153.245 31.0239C150.796 31.0239 148.965 30.3575 147.754 29.0247C146.543 27.6647 145.937 25.6519 145.937 22.9863V4.58547C145.937 3.55187 146.199 2.77667 146.722 2.25987C147.272 1.71587 148.057 1.44387 149.075 1.44387C150.066 1.44387 150.823 1.71587 151.346 2.25987C151.897 2.77667 152.172 3.55187 152.172 4.58547V22.7415C152.172 23.8567 152.406 24.6863 152.874 25.2303C153.369 25.7471 154.016 26.0055 154.814 26.0055C155.035 26.0055 155.241 25.9919 155.434 25.9647C155.626 25.9375 155.833 25.9239 156.053 25.9239C156.493 25.8695 156.796 26.0055 156.961 26.3319C157.154 26.6311 157.25 27.2431 157.25 28.1679C157.25 28.9839 157.085 29.6095 156.755 30.0447C156.425 30.4527 155.915 30.7247 155.227 30.8607C154.952 30.8879 154.636 30.9151 154.278 30.9423C153.92 30.9967 153.576 31.0239 153.245 31.0239ZM162.825 30.9015C161.806 30.9015 161.022 30.6159 160.471 30.0447C159.948 29.4463 159.687 28.6167 159.687 27.5559V13.6023C159.687 12.5143 159.948 11.6847 160.471 11.1135C161.022 10.5151 161.806 10.2159 162.825 10.2159C163.816 10.2159 164.573 10.5151 165.096 11.1135C165.646 11.6847 165.921 12.5143 165.921 13.6023V27.5559C165.921 28.6167 165.66 29.4463 165.137 30.0447C164.614 30.6159 163.843 30.9015 162.825 30.9015ZM162.825 6.87027C161.669 6.87027 160.774 6.61187 160.141 6.09507C159.535 5.55107 159.233 4.78947 159.233 3.81027C159.233 2.80387 159.535 2.04227 160.141 1.52547C160.774 0.981472 161.669 0.709473 162.825 0.709473C163.981 0.709473 164.862 0.981472 165.467 1.52547C166.073 2.04227 166.375 2.80387 166.375 3.81027C166.375 4.78947 166.073 5.55107 165.467 6.09507C164.862 6.61187 163.981 6.87027 162.825 6.87027ZM178.496 31.0239C177.285 31.0239 176.033 30.9151 174.739 30.6975C173.473 30.4799 172.317 30.1127 171.271 29.5959C170.721 29.3239 170.322 28.9839 170.074 28.5759C169.854 28.1407 169.757 27.7055 169.785 27.2703C169.812 26.8351 169.95 26.4407 170.198 26.0871C170.473 25.7335 170.817 25.5023 171.23 25.3935C171.67 25.2575 172.152 25.2983 172.675 25.5159C173.804 25.9783 174.836 26.3047 175.771 26.4951C176.707 26.6855 177.629 26.7807 178.537 26.7807C179.721 26.7807 180.574 26.6039 181.097 26.2503C181.648 25.8695 181.923 25.3799 181.923 24.7815C181.923 24.2375 181.744 23.8295 181.386 23.5575C181.028 23.2855 180.505 23.0951 179.817 22.9863L175.482 22.2111C173.776 21.9119 172.455 21.2999 171.519 20.3751C170.611 19.4231 170.156 18.2127 170.156 16.7439C170.156 15.3839 170.542 14.2143 171.312 13.2351C172.083 12.2287 173.143 11.4671 174.492 10.9503C175.867 10.4063 177.423 10.1343 179.157 10.1343C180.395 10.1343 181.538 10.2431 182.584 10.4607C183.63 10.6783 184.634 11.0319 185.598 11.5215C186.093 11.7663 186.437 12.0927 186.63 12.5007C186.85 12.9087 186.919 13.3303 186.836 13.7655C186.781 14.2007 186.616 14.5951 186.341 14.9487C186.066 15.3023 185.708 15.5335 185.267 15.6423C184.854 15.7511 184.373 15.6967 183.822 15.4791C182.941 15.0711 182.129 14.7855 181.386 14.6223C180.643 14.4319 179.927 14.3367 179.239 14.3367C178.001 14.3367 177.106 14.5407 176.556 14.9487C176.005 15.3295 175.73 15.8191 175.73 16.4175C175.73 16.8799 175.881 17.2743 176.184 17.6007C176.514 17.8999 177.01 18.1039 177.67 18.2127L182.006 18.9879C183.795 19.2871 185.157 19.8855 186.093 20.7831C187.029 21.6535 187.497 22.8503 187.497 24.3735C187.497 26.4407 186.671 28.0727 185.02 29.2695C183.396 30.4391 181.221 31.0239 178.496 31.0239ZM200.805 31.0239C198.906 31.0239 197.31 30.7111 196.016 30.0855C194.75 29.4599 193.8 28.5487 193.167 27.3519C192.562 26.1551 192.259 24.6455 192.259 22.8231V15.1527H190.525C189.754 15.1527 189.148 14.9487 188.708 14.5407C188.295 14.1327 188.089 13.5751 188.089 12.8679C188.089 12.1063 188.295 11.5351 188.708 11.1543C189.148 10.7463 189.754 10.5423 190.525 10.5423H192.259V7.44147C192.259 6.40787 192.534 5.63267 193.085 5.11587C193.635 4.57187 194.406 4.29987 195.397 4.29987C196.415 4.29987 197.186 4.57187 197.709 5.11587C198.232 5.63267 198.493 6.40787 198.493 7.44147V10.5423H202.416C203.186 10.5423 203.778 10.7463 204.191 11.1543C204.604 11.5351 204.81 12.1063 204.81 12.8679C204.81 13.5751 204.604 14.1327 204.191 14.5407C203.778 14.9487 203.186 15.1527 202.416 15.1527H198.493V22.5783C198.493 23.7207 198.755 24.5775 199.278 25.1487C199.828 25.7199 200.695 26.0055 201.879 26.0055C202.292 26.0055 202.677 25.9647 203.035 25.8831C203.393 25.8015 203.723 25.7471 204.026 25.7199C204.411 25.6927 204.728 25.8151 204.976 26.0871C205.223 26.3319 205.347 26.8895 205.347 27.7599C205.347 28.4127 205.237 28.9839 205.017 29.4735C204.797 29.9631 204.411 30.3167 203.861 30.5343C203.503 30.6703 203.007 30.7791 202.374 30.8607C201.769 30.9695 201.246 31.0239 200.805 31.0239Z" fill="#CDD2D6"/>
</g>
<defs>
<clipPath id="clip0_145_558">
<rect width="206.347" height="31.7332" fill="white"/>
</clipPath>
</defs>
</svg>
