<svg width="128" height="40" viewBox="0 0 128 40" fill="none" xmlns="http://www.w3.org/2000/svg">
<path d="M43.5817 29.264C42.7177 29.264 41.9417 29.096 41.2537 28.76C40.5657 28.424 40.0297 27.968 39.6457 27.392C39.2617 26.816 39.0697 26.168 39.0697 25.448C39.0697 24.584 39.2937 23.904 39.7417 23.408C40.1897 22.896 40.9177 22.536 41.9257 22.328C42.9337 22.104 44.2697 21.992 45.9337 21.992H47.2057V23.864H45.9577C45.1417 23.864 44.4777 23.912 43.9657 24.008C43.4697 24.088 43.1097 24.232 42.8857 24.44C42.6777 24.648 42.5737 24.936 42.5737 25.304C42.5737 25.752 42.7257 26.12 43.0297 26.408C43.3497 26.696 43.8057 26.84 44.3977 26.84C44.8617 26.84 45.2697 26.736 45.6217 26.528C45.9897 26.304 46.2777 26.008 46.4857 25.64C46.6937 25.256 46.7977 24.824 46.7977 24.344V21.584C46.7977 20.88 46.6377 20.384 46.3177 20.096C45.9977 19.792 45.4537 19.64 44.6857 19.64C44.2537 19.64 43.7817 19.696 43.2697 19.808C42.7737 19.904 42.2217 20.072 41.6137 20.312C41.2617 20.472 40.9497 20.512 40.6777 20.432C40.4057 20.336 40.1977 20.176 40.0537 19.952C39.9097 19.712 39.8377 19.456 39.8377 19.184C39.8377 18.896 39.9177 18.624 40.0777 18.368C40.2377 18.096 40.5017 17.896 40.8697 17.768C41.6217 17.464 42.3257 17.256 42.9817 17.144C43.6537 17.032 44.2697 16.976 44.8297 16.976C46.0617 16.976 47.0697 17.16 47.8537 17.528C48.6537 17.88 49.2537 18.432 49.6537 19.184C50.0537 19.92 50.2537 20.872 50.2537 22.04V27.368C50.2537 27.96 50.1097 28.416 49.8217 28.736C49.5337 29.056 49.1177 29.216 48.5737 29.216C48.0297 29.216 47.6057 29.056 47.3017 28.736C47.0137 28.416 46.8697 27.96 46.8697 27.368V26.48L47.0377 26.624C46.9417 27.168 46.7337 27.64 46.4137 28.04C46.1097 28.424 45.7177 28.728 45.2377 28.952C44.7577 29.16 44.2057 29.264 43.5817 29.264ZM58.7411 29.264C57.6371 29.264 56.7091 29.08 55.9571 28.712C55.2211 28.344 54.6691 27.808 54.3011 27.104C53.9491 26.4 53.7731 25.512 53.7731 24.44V19.928H52.7651C52.3171 19.928 51.9651 19.808 51.7091 19.568C51.4691 19.328 51.3491 19 51.3491 18.584C51.3491 18.136 51.4691 17.8 51.7091 17.576C51.9651 17.336 52.3171 17.216 52.7651 17.216H53.7731V15.392C53.7731 14.784 53.9331 14.328 54.2531 14.024C54.5731 13.704 55.0211 13.544 55.5971 13.544C56.1891 13.544 56.6371 13.704 56.9411 14.024C57.2451 14.328 57.3971 14.784 57.3971 15.392V17.216H59.6771C60.1251 17.216 60.4691 17.336 60.7091 17.576C60.9491 17.8 61.0691 18.136 61.0691 18.584C61.0691 19 60.9491 19.328 60.7091 19.568C60.4691 19.808 60.1251 19.928 59.6771 19.928H57.3971V24.296C57.3971 24.968 57.5491 25.472 57.8531 25.808C58.1731 26.144 58.6771 26.312 59.3651 26.312C59.6051 26.312 59.8291 26.288 60.0371 26.24C60.2451 26.192 60.4371 26.16 60.6131 26.144C60.8371 26.128 61.0211 26.2 61.1651 26.36C61.3091 26.504 61.3811 26.832 61.3811 27.344C61.3811 27.728 61.3171 28.064 61.1891 28.352C61.0611 28.64 60.8371 28.848 60.5171 28.976C60.3091 29.056 60.0211 29.12 59.6531 29.168C59.3011 29.232 58.9971 29.264 58.7411 29.264ZM68.279 29.264C66.999 29.264 65.879 29.016 64.919 28.52C63.975 28.008 63.247 27.288 62.735 26.36C62.223 25.432 61.967 24.336 61.967 23.072C61.967 22.128 62.111 21.28 62.399 20.528C62.687 19.776 63.103 19.136 63.647 18.608C64.207 18.08 64.879 17.68 65.663 17.408C66.447 17.12 67.319 16.976 68.279 16.976C68.775 16.976 69.303 17.04 69.863 17.168C70.423 17.28 70.975 17.48 71.519 17.768C71.839 17.912 72.055 18.12 72.167 18.392C72.295 18.648 72.343 18.92 72.311 19.208C72.279 19.48 72.175 19.728 71.999 19.952C71.839 20.16 71.631 20.304 71.375 20.384C71.119 20.448 70.831 20.4 70.511 20.24C70.207 20.064 69.887 19.936 69.551 19.856C69.231 19.776 68.927 19.736 68.639 19.736C68.159 19.736 67.735 19.816 67.367 19.976C66.999 20.12 66.687 20.336 66.431 20.624C66.191 20.896 65.999 21.24 65.855 21.656C65.727 22.072 65.663 22.552 65.663 23.096C65.663 24.152 65.919 24.984 66.431 25.592C66.959 26.184 67.695 26.48 68.639 26.48C68.927 26.48 69.231 26.448 69.551 26.384C69.871 26.304 70.191 26.176 70.511 26C70.831 25.84 71.119 25.8 71.375 25.88C71.631 25.96 71.831 26.112 71.975 26.336C72.135 26.544 72.223 26.792 72.239 27.08C72.271 27.352 72.223 27.624 72.095 27.896C71.983 28.152 71.775 28.352 71.471 28.496C70.927 28.768 70.383 28.96 69.839 29.072C69.295 29.2 68.775 29.264 68.279 29.264ZM75.828 29.216C75.2359 29.216 74.78 29.056 74.46 28.736C74.156 28.416 74.0039 27.96 74.0039 27.368V13.712C74.0039 13.104 74.156 12.648 74.46 12.344C74.78 12.024 75.2359 11.864 75.828 11.864C76.4039 11.864 76.844 12.024 77.148 12.344C77.468 12.648 77.628 13.104 77.628 13.712V19.424H77.292C77.66 18.64 78.204 18.04 78.924 17.624C79.66 17.192 80.492 16.976 81.42 16.976C82.364 16.976 83.14 17.16 83.748 17.528C84.356 17.88 84.812 18.424 85.116 19.16C85.42 19.88 85.572 20.8 85.572 21.92V27.368C85.572 27.96 85.412 28.416 85.092 28.736C84.788 29.056 84.34 29.216 83.748 29.216C83.172 29.216 82.724 29.056 82.404 28.736C82.1 28.416 81.948 27.96 81.948 27.368V22.088C81.948 21.272 81.796 20.688 81.492 20.336C81.204 19.968 80.756 19.784 80.148 19.784C79.38 19.784 78.764 20.024 78.3 20.504C77.852 20.984 77.628 21.624 77.628 22.424V27.368C77.628 28.6 77.028 29.216 75.828 29.216ZM92.5254 29.264C91.1014 29.264 90.0374 28.872 89.3334 28.088C88.6294 27.288 88.2774 26.104 88.2774 24.536V13.712C88.2774 13.104 88.4294 12.648 88.7334 12.344C89.0534 12.024 89.5094 11.864 90.1014 11.864C90.6774 11.864 91.1174 12.024 91.4214 12.344C91.7414 12.648 91.9014 13.104 91.9014 13.712V24.392C91.9014 25.048 92.0374 25.536 92.3094 25.856C92.5974 26.16 92.9734 26.312 93.4374 26.312C93.5654 26.312 93.6854 26.304 93.7974 26.288C93.9094 26.272 94.0294 26.264 94.1574 26.264C94.4134 26.232 94.5894 26.312 94.6854 26.504C94.7974 26.68 94.8534 27.04 94.8534 27.584C94.8534 28.064 94.7574 28.432 94.5654 28.688C94.3734 28.928 94.0774 29.088 93.6774 29.168C93.5174 29.184 93.3334 29.2 93.1254 29.216C92.9174 29.248 92.7174 29.264 92.5254 29.264ZM98.0936 29.192C97.5016 29.192 97.0456 29.024 96.7256 28.688C96.4216 28.336 96.2696 27.848 96.2696 27.224V19.016C96.2696 18.376 96.4216 17.888 96.7256 17.552C97.0456 17.2 97.5016 17.024 98.0936 17.024C98.6696 17.024 99.1096 17.2 99.4136 17.552C99.7336 17.888 99.8936 18.376 99.8936 19.016V27.224C99.8936 27.848 99.7416 28.336 99.4376 28.688C99.1336 29.024 98.6856 29.192 98.0936 29.192ZM98.0936 15.056C97.4216 15.056 96.9016 14.904 96.5336 14.6C96.1816 14.28 96.0056 13.832 96.0056 13.256C96.0056 12.664 96.1816 12.216 96.5336 11.912C96.9016 11.592 97.4216 11.432 98.0936 11.432C98.7656 11.432 99.2776 11.592 99.6296 11.912C99.9816 12.216 100.158 12.664 100.158 13.256C100.158 13.832 99.9816 14.28 99.6296 14.6C99.2776 14.904 98.7656 15.056 98.0936 15.056ZM107.203 29.264C106.499 29.264 105.771 29.2 105.019 29.072C104.283 28.944 103.611 28.728 103.003 28.424C102.683 28.264 102.451 28.064 102.307 27.824C102.179 27.568 102.123 27.312 102.139 27.056C102.155 26.8 102.235 26.568 102.379 26.36C102.539 26.152 102.739 26.016 102.979 25.952C103.235 25.872 103.515 25.896 103.819 26.024C104.475 26.296 105.075 26.488 105.619 26.6C106.163 26.712 106.699 26.768 107.227 26.768C107.915 26.768 108.411 26.664 108.715 26.456C109.035 26.232 109.195 25.944 109.195 25.592C109.195 25.272 109.091 25.032 108.883 24.872C108.675 24.712 108.371 24.6 107.971 24.536L105.451 24.08C104.459 23.904 103.691 23.544 103.147 23C102.619 22.44 102.355 21.728 102.355 20.864C102.355 20.064 102.579 19.376 103.027 18.8C103.475 18.208 104.091 17.76 104.875 17.456C105.675 17.136 106.579 16.976 107.587 16.976C108.307 16.976 108.971 17.04 109.579 17.168C110.187 17.296 110.771 17.504 111.331 17.792C111.619 17.936 111.819 18.128 111.931 18.368C112.059 18.608 112.099 18.856 112.051 19.112C112.019 19.368 111.923 19.6 111.763 19.808C111.603 20.016 111.395 20.152 111.139 20.216C110.899 20.28 110.619 20.248 110.299 20.12C109.787 19.88 109.315 19.712 108.883 19.616C108.451 19.504 108.035 19.448 107.635 19.448C106.915 19.448 106.395 19.568 106.075 19.808C105.755 20.032 105.595 20.32 105.595 20.672C105.595 20.944 105.683 21.176 105.859 21.368C106.051 21.544 106.339 21.664 106.723 21.728L109.243 22.184C110.283 22.36 111.075 22.712 111.619 23.24C112.163 23.752 112.435 24.456 112.435 25.352C112.435 26.568 111.955 27.528 110.995 28.232C110.051 28.92 108.787 29.264 107.203 29.264ZM120.171 29.264C119.067 29.264 118.139 29.08 117.387 28.712C116.651 28.344 116.099 27.808 115.731 27.104C115.379 26.4 115.203 25.512 115.203 24.44V19.928H114.195C113.747 19.928 113.395 19.808 113.139 19.568C112.899 19.328 112.779 19 112.779 18.584C112.779 18.136 112.899 17.8 113.139 17.576C113.395 17.336 113.747 17.216 114.195 17.216H115.203V15.392C115.203 14.784 115.363 14.328 115.683 14.024C116.003 13.704 116.451 13.544 117.027 13.544C117.619 13.544 118.067 13.704 118.371 14.024C118.675 14.328 118.827 14.784 118.827 15.392V17.216H121.107C121.555 17.216 121.899 17.336 122.139 17.576C122.379 17.8 122.499 18.136 122.499 18.584C122.499 19 122.379 19.328 122.139 19.568C121.899 19.808 121.555 19.928 121.107 19.928H118.827V24.296C118.827 24.968 118.979 25.472 119.283 25.808C119.603 26.144 120.107 26.312 120.795 26.312C121.035 26.312 121.259 26.288 121.467 26.24C121.675 26.192 121.867 26.16 122.043 26.144C122.267 26.128 122.451 26.2 122.595 26.36C122.739 26.504 122.811 26.832 122.811 27.344C122.811 27.728 122.747 28.064 122.619 28.352C122.491 28.64 122.267 28.848 121.947 28.976C121.739 29.056 121.451 29.12 121.083 29.168C120.731 29.232 120.427 29.264 120.171 29.264Z" fill="#CDD2D6"/>
<path d="M12.0939 29.3334C11.8532 29.3334 11.6276 29.2917 11.417 29.2084C11.2064 29.1251 11.0108 29.0001 10.8303 28.8334L3.20397 21.7917C2.87304 21.4862 2.70758 21.0901 2.70758 20.6034C2.70758 20.1179 2.87304 19.7223 3.20397 19.4167C3.5349 19.1112 3.95608 18.9584 4.46751 18.9584C4.97894 18.9584 5.40012 19.1112 5.73105 19.4167L12.139 25.3334L14.6661 27.6667L13.3574 28.8334C13.1769 29.0001 12.9813 29.1251 12.7708 29.2084C12.5602 29.2917 12.3345 29.3334 12.0939 29.3334ZM22.2924 29.2917C22.0517 29.2917 21.8261 29.2567 21.6155 29.1867C21.4049 29.1179 21.2094 29.0001 21.0289 28.8334L13.3574 21.7501C13.0265 21.4445 12.861 21.0484 12.861 20.5617C12.861 20.0762 13.0265 19.6806 13.3574 19.3751C13.6883 19.0695 14.1095 18.9167 14.6209 18.9167C15.1324 18.9167 15.5536 19.0695 15.8845 19.3751L22.2924 25.2917L37.6354 11.1251C37.9663 10.8195 38.3875 10.6667 38.8989 10.6667C39.4104 10.6667 39.8315 10.8195 40.1625 11.1251C40.4934 11.4306 40.6588 11.8262 40.6588 12.3117C40.6588 12.7984 40.4934 13.1945 40.1625 13.5001L23.556 28.8334C23.3755 29.0001 23.1799 29.1179 22.9693 29.1867C22.7587 29.2567 22.5331 29.2917 22.2924 29.2917ZM22.2924 20.5834L19.7202 18.2501L27.3917 11.1667C27.7226 10.8612 28.151 10.7084 28.6769 10.7084C29.204 10.7084 29.633 10.8612 29.9639 11.1667C30.2948 11.4723 30.4603 11.8612 30.4603 12.3334C30.4603 12.8056 30.2948 13.1945 29.9639 13.5001L22.2924 20.5834Z" fill="#EB9929"/>
</svg>
