<svg width="300" height="200" viewBox="0 0 300 200" fill="none" xmlns="http://www.w3.org/2000/svg">
<path d="M192.84 137.2L168.44 112.8L157.68 102.04L125.24 69.6L119.6 63.96L113.64 58L108 63.64L117.24 72.92V125.6C117.24 130 120.84 133.6 125.24 133.6H177.92L187.16 142.84L192.84 137.2ZM125.24 125.6V80.92L152.6 108.28L149.24 112.48L141.24 101.6L129.24 117.6H161.92L169.92 125.6H125.24ZM136.56 69.6L128.56 61.6H181.24C185.64 61.6 189.24 65.2 189.24 69.6V122.28L181.24 114.28V69.6H136.56Z" fill="#161A1C"/>
</svg>
